<?xml version="1.0" encoding="UTF-8"?>
<!DOCTYPE svg PUBLIC "-//W3C//DTD SVG 1.1//EN" "http://www.w3.org/Graphics/SVG/1.1/DTD/svg11.dtd">
<!-- Creator: CorelDRAW X8 -->
<svg xmlns="http://www.w3.org/2000/svg" xml:space="preserve" width="25.4mm" height="25.4mm" version="1.1" style="shape-rendering:geometricPrecision; text-rendering:geometricPrecision; image-rendering:optimizeQuality; fill-rule:evenodd; clip-rule:evenodd"
viewBox="0 0 2540 2540"
 xmlns:xlink="http://www.w3.org/1999/xlink">
 <defs>
  <style type="text/css">
   <![CDATA[
    .fil0 {fill:#EE7E1A}
    .fil2 {fill:#373435;fill-rule:nonzero}
    .fil1 {fill:#282829;fill-rule:nonzero}
   ]]>
  </style>
 </defs>
 <g id="Camada_x0020_1">
  <metadata id="CorelCorpID_0Corel-Layer"/>
  <g id="_1446086474240">
   <path class="fil0" d="M839 877l8 0 0 -8 8 0 0 -8 8 0 0 -8 8 0 0 -8 8 0 0 -7 8 0 0 -8 8 0 0 -8 8 0 0 -8 7 0 0 -8 8 0 0 -8 8 0 0 -8 8 0 0 -8 8 0 0 -8 8 0 0 -8 8 0 0 -7 8 0 0 -8 8 0 0 -8 8 0 0 -8 8 0 0 -8 7 0 0 -8 8 0 0 -8 8 0 0 -8 8 0 0 -8 8 0 0 -8 8 0 0 -8 8 0 0 -7 8 0 0 -8 8 0 0 -8 8 0 0 -8 7 0 0 -8 8 0 0 -8 8 0 0 -8 8 0 0 -8 8 0 0 -8 8 0 0 -8 8 0 0 -7 8 0 0 -8 8 0 0 -8 8 0 0 -8 8 0 0 -8 7 0 0 -8 8 0 0 -8 8 0 0 -8 8 0 0 -8 8 0 0 -8 8 0 0 -8 8 0 0 -7 8 0 0 -8 23 0 0 8 8 0 0 7 8 0 0 8 8 0 0 8 8 0 0 8 8 0 0 8 8 0 0 8 8 0 0 8 8 0 0 8 8 0 0 8 7 0 0 8 8 0 0 8 8 0 0 7 8 0 0 8 8 0 0 8 8 0 0 8 8 0 0 8 8 0 0 8 8 0 0 8 8 0 0 8 8 0 0 8 7 0 0 8 8 0 0 7 8 0 0 8 8 0 0 8 8 0 0 8 8 0 0 8 8 0 0 8 8 0 0 8 8 0 0 8 8 0 0 8 7 0 0 8 8 0 0 8 8 0 0 7 8 0 0 8 8 0 0 8 8 0 0 8 8 0 0 8 8 0 0 8 8 0 0 8 8 0 0 8 8 0 0 8 7 0 0 8 8 0 0 7 8 0 0 8 8 0 0 8 8 0 0 8 8 0 0 8 8 0 0 8 -783 0 0 -8zm-15 -782l-8 0 0 7 -8 0 0 8 -8 0 0 8 -8 0 0 8 -8 0 0 8 -8 0 0 8 -8 0 0 8 -8 0 0 8 -8 0 0 8 -7 0 0 8 -8 0 0 8 -8 0 0 7 -8 0 0 8 -8 0 0 8 -8 0 0 8 -8 0 0 8 -8 0 0 8 -8 0 0 8 -8 0 0 8 -8 0 0 8 -7 0 0 8 -8 0 0 7 -8 0 0 8 -8 0 0 8 -8 0 0 8 -8 0 0 8 -8 0 0 8 -8 0 0 8 -8 0 0 8 -8 0 0 8 -7 0 0 8 -8 0 0 8 -8 0 0 7 -8 0 0 8 -8 0 0 8 -8 0 0 8 -8 0 0 8 -8 0 0 8 -8 0 0 8 -8 0 0 8 -8 0 0 8 -7 0 0 8 -8 0 0 7 -8 0 0 8 -8 0 0 8 -8 0 0 8 -8 0 0 8 -8 0 0 8 -8 0 0 8 -8 0 0 16 16 0 0 8 8 0 0 7 8 0 0 8 8 0 0 8 8 0 0 8 8 0 0 8 8 0 0 8 7 0 0 8 8 0 0 8 8 0 0 8 8 0 0 8 8 0 0 8 8 0 0 7 8 0 0 8 8 0 0 8 8 0 0 8 8 0 0 8 8 0 0 8 7 0 0 8 8 0 0 8 8 0 0 8 8 0 0 8 8 0 0 7 8 0 0 8 8 0 0 8 8 0 0 8 8 0 0 8 8 0 0 8 7 0 0 8 8 0 0 8 8 0 0 8 8 0 0 8 8 0 0 8 8 0 0 7 8 0 0 8 8 0 0 8 8 0 0 8 8 0 0 8 8 0 0 8 7 0 0 8 8 0 0 8 8 0 0 8 8 0 0 8 8 0 0 7 8 0 0 8 8 0 0 8 8 0 0 8 8 0 0 8 8 0 0 16 7 0 0 798 807 0 0 -814 8 0 0 -8 7 0 0 -8 8 0 0 -8 8 0 0 -8 8 0 0 -7 8 0 0 -8 8 0 0 -8 8 0 0 -8 8 0 0 -8 8 0 0 -8 8 0 0 -8 8 0 0 -8 7 0 0 -8 8 0 0 -8 8 0 0 -7 8 0 0 -8 8 0 0 -8 8 0 0 -8 8 0 0 -8 8 0 0 -8 8 0 0 -8 8 0 0 -8 7 0 0 -8 8 0 0 -8 8 0 0 -8 8 0 0 -7 8 0 0 -8 8 0 0 -8 8 0 0 -8 8 0 0 -8 8 0 0 -8 8 0 0 -8 7 0 0 -8 8 0 0 -8 8 0 0 -8 8 0 0 -7 8 0 0 -8 8 0 0 -8 8 0 0 -8 8 0 0 -8 8 0 0 -8 8 0 0 -8 8 0 0 -8 7 0 0 -8 8 0 0 -8 8 0 0 -8 8 0 0 -7 8 0 0 -8 16 0 0 -16 -8 0 0 -8 -8 0 0 -8 -8 0 0 -8 -8 0 0 -8 -8 0 0 -8 -8 0 0 -8 -7 0 0 -7 -8 0 0 -8 -8 0 0 -8 -8 0 0 -8 -8 0 0 -8 -8 0 0 -8 -8 0 0 -8 -8 0 0 -8 -8 0 0 -8 -8 0 0 -8 -8 0 0 -7 -7 0 0 -8 -8 0 0 -8 -8 0 0 -8 -8 0 0 -8 -8 0 0 -8 -8 0 0 -8 -8 0 0 -8 -8 0 0 -8 -8 0 0 -8 -8 0 0 -8 -7 0 0 -7 -8 0 0 -8 -8 0 0 -8 -8 0 0 -8 -8 0 0 -8 -8 0 0 -8 -8 0 0 -8 -8 0 0 -8 -8 0 0 -8 -8 0 0 -8 -7 0 0 -7 -8 0 0 -8 -8 0 0 -8 -8 0 0 -8 -8 0 0 -8 -8 0 0 -8 -8 0 0 -8 -8 0 0 -8 -8 0 0 -8 -8 0 0 -8 -8 0 0 -8 -7 0 0 -7 -8 0 0 -8 -16 0 0 8 -8 0 0 7 -8 0 0 8 -8 0 0 8 -8 0 0 8 -8 0 0 8 -8 0 0 8 -7 0 0 8 -8 0 0 8 -8 0 0 8 -8 0 0 8 -8 0 0 8 -8 0 0 7 -8 0 0 8 -8 0 0 8 -8 0 0 8 -8 0 0 8 -8 0 0 8 -7 0 0 8 -8 0 0 8 -8 0 0 8 -8 0 0 8 -8 0 0 7 -8 0 0 8 -8 0 0 8 -8 0 0 8 -8 0 0 8 -8 0 0 8 -7 0 0 8 -8 0 0 8 -8 0 0 8 -8 0 0 8 -8 0 0 8 -8 0 0 7 -8 0 0 8 -8 0 0 8 -8 0 0 8 -8 0 0 8 -8 0 0 8 -7 0 0 8 -8 0 0 8 -8 0 0 8 -8 0 0 8 -8 0 0 7 -8 0 0 8 -8 0 0 8 -8 0 0 8 -8 0 0 8 -8 0 0 8 -7 0 0 8 -8 0 0 -8 -8 0 0 -8 -8 0 0 -8 -8 0 0 -8 -8 0 0 -8 -8 0 0 -8 -8 0 0 -7 -8 0 0 -8 -8 0 0 -8 -7 0 0 -8 -8 0 0 -8 -8 0 0 -8 -8 0 0 -8 -8 0 0 -8 -8 0 0 -8 -8 0 0 -8 -8 0 0 -7 -8 0 0 -8 -8 0 0 -8 -8 0 0 -8 -7 0 0 -8 -8 0 0 -8 -8 0 0 -8 -8 0 0 -8 -8 0 0 -8 -8 0 0 -8 -8 0 0 -8 -8 0 0 -7 -8 0 0 -8 -8 0 0 -8 -7 0 0 -8 -8 0 0 -8 -8 0 0 -8 -8 0 0 -8 -8 0 0 -8 -8 0 0 -8 -8 0 0 -8 -8 0 0 -7 -8 0 0 -8 -8 0 0 -8 -8 0 0 -8 -7 0 0 -8 -8 0 0 -8 -8 0 0 -8 -8 0 0 -8 -8 0 0 -8 -8 0 0 -8 -8 0 0 -8 -8 0 0 -7 -8 0 0 -8 -15 0 0 8z"/>
   <path class="fil1" d="M139 2174l0 -316 87 0c33,0 54,2 64,5 16,5 29,15 39,31 10,16 16,36 16,62 0,19 -3,35 -9,48 -6,14 -14,24 -23,32 -9,7 -19,12 -28,15 -13,3 -32,4 -56,4l-35 0 0 119 -55 0zm55 -262l0 90 29 0c21,0 36,-2 43,-5 7,-4 13,-9 17,-16 4,-7 6,-15 6,-24 0,-12 -3,-22 -9,-29 -6,-8 -13,-12 -22,-14 -6,-2 -19,-2 -38,-2l-26 0zm193 262l0 -316 55 0 0 316 -55 0zm167 0l0 -262 -80 0 0 -54 213 0 0 54 -79 0 0 262 -54 0zm410 0l-58 0 -23 -72 -108 0 -22 72 -58 0 104 -316 58 0 107 316zm-99 -125l-37 -117 -37 117 74 0zm-57 -219l26 -65 57 0 -50 65 -33 0zm310 228l0 -53 117 0 0 126c-12,13 -28,24 -50,34 -21,10 -43,15 -65,15 -28,0 -53,-7 -73,-21 -21,-14 -37,-34 -47,-59 -11,-26 -16,-54 -16,-85 0,-33 6,-62 17,-88 12,-25 29,-45 52,-59 17,-10 38,-15 64,-15 33,0 59,8 78,24 19,17 31,40 36,69l-54 12c-3,-16 -11,-28 -21,-37 -10,-9 -23,-14 -39,-14 -24,0 -42,9 -56,27 -14,18 -21,44 -21,79 0,37 7,65 21,84 14,19 33,28 56,28 11,0 22,-2 34,-7 11,-6 21,-12 29,-20l0 -40 -62 0zm156 -40c0,-32 4,-59 12,-81 6,-16 14,-31 25,-43 10,-13 22,-23 35,-29 16,-8 36,-12 58,-12 39,0 71,14 95,43 23,29 35,69 35,121 0,51 -12,91 -35,120 -24,29 -55,43 -95,43 -40,0 -71,-14 -95,-43 -24,-29 -35,-68 -35,-119zm55 -2c0,36 8,63 22,82 14,18 32,27 53,27 22,0 40,-9 54,-27 13,-19 20,-46 20,-83 0,-36 -6,-63 -20,-81 -13,-18 -31,-27 -54,-27 -22,0 -40,9 -54,27 -14,18 -21,46 -21,82zm248 158l0 -316 114 0c28,0 49,3 62,9 13,5 24,16 31,30 8,15 12,31 12,50 0,24 -6,43 -17,59 -12,15 -30,25 -53,29 11,8 21,17 28,26 8,10 18,27 31,52l33 61 -65 0 -39 -69c-14,-24 -23,-40 -28,-46 -5,-6 -11,-11 -17,-13 -5,-2 -15,-4 -27,-4l-11 0 0 132 -54 0zm54 -182l40 0c26,0 42,-1 49,-4 6,-2 11,-7 15,-13 4,-7 5,-15 5,-24 0,-11 -2,-19 -7,-26 -5,-6 -12,-11 -20,-12 -5,-1 -18,-1 -40,-1l-42 0 0 80zm458 182l-58 0 -24 -72 -107 0 -23 72 -57 0 104 -316 58 0 107 316zm-99 -125l-38 -117 -36 117 74 0zm114 23l53 -6c3,21 9,36 19,46 10,9 23,14 39,14 17,0 31,-4 39,-13 9,-8 14,-19 14,-30 0,-8 -2,-14 -6,-19 -4,-6 -10,-10 -19,-14 -7,-3 -21,-7 -43,-14 -29,-8 -50,-19 -61,-31 -17,-18 -25,-39 -25,-64 0,-16 4,-31 12,-45 7,-14 18,-25 33,-32 15,-8 32,-11 53,-11 33,0 58,8 75,26 17,17 26,41 27,70l-54 2c-3,-16 -7,-28 -15,-35 -8,-7 -19,-10 -34,-10 -16,0 -28,3 -37,11 -5,5 -8,11 -8,20 0,7 2,14 8,19 7,7 23,14 49,21 27,7 46,15 59,23 12,8 22,18 29,32 7,14 11,30 11,50 0,19 -4,36 -13,51 -8,16 -20,28 -36,36 -16,7 -35,11 -58,11 -34,0 -60,-9 -79,-28 -18,-18 -29,-45 -32,-80z"/>
   <path class="fil2" d="M387 2477l0 -200 137 0 0 34 -97 0 0 47 84 0 0 34 -84 0 0 85 -40 0zm335 0l-44 0 -17 -46 -80 0 -17 46 -43 0 78 -200 43 0 80 200zm-74 -80l-28 -74 -27 74 55 0zm223 6l40 12c-6,22 -16,38 -30,49 -14,11 -32,16 -54,16 -26,0 -48,-9 -65,-27 -17,-18 -26,-43 -26,-75 0,-33 9,-59 26,-77 17,-19 40,-28 68,-28 24,0 44,7 60,22 9,8 15,21 20,37l-40 9c-2,-10 -7,-18 -15,-24 -7,-6 -16,-9 -27,-9 -15,0 -27,5 -36,16 -10,10 -14,28 -14,51 0,26 4,44 14,54 9,11 20,17 35,17 11,0 20,-4 28,-11 8,-7 13,-17 16,-32zm74 -126l41 0 0 108c0,17 0,29 1,34 2,8 6,14 12,19 7,5 16,8 27,8 11,0 20,-3 25,-7 6,-5 10,-11 11,-18 1,-6 2,-18 2,-33l0 -111 40 0 0 105c0,24 -1,41 -3,51 -2,10 -6,18 -12,25 -6,7 -14,12 -24,16 -9,4 -22,6 -38,6 -19,0 -33,-2 -43,-6 -10,-5 -18,-10 -24,-17 -5,-7 -9,-15 -11,-23 -2,-11 -4,-28 -4,-50l0 -107zm203 200l0 -199 41 0 0 165 100 0 0 34 -141 0zm170 -200l73 0c17,0 29,1 38,4 12,3 22,9 30,18 9,9 15,20 19,32 5,13 7,29 7,48 0,16 -2,30 -6,42 -5,15 -12,27 -22,36 -7,6 -16,12 -28,16 -9,2 -21,4 -36,4l-75 0 0 -200zm40 34l0 132 30 0c11,0 19,-1 24,-2 7,-2 12,-4 17,-8 4,-4 7,-11 10,-20 3,-8 4,-21 4,-36 0,-16 -1,-27 -4,-36 -3,-8 -6,-14 -11,-19 -5,-5 -11,-8 -19,-9 -5,-2 -17,-2 -33,-2l-18 0zm341 166l-43 0 -18 -46 -80 0 -16 46 -43 0 77 -200 43 0 80 200zm-74 -80l-27 -74 -27 74 54 0zm96 -120l74 0c16,0 29,1 38,4 11,3 21,9 30,18 8,9 14,20 19,32 4,13 6,29 6,48 0,16 -2,30 -6,42 -5,15 -12,27 -21,36 -7,6 -17,12 -29,16 -8,2 -20,4 -35,4l-76 0 0 -200zm40 34l0 132 30 0c12,0 20,-1 25,-2 6,-2 12,-4 16,-8 4,-4 8,-11 11,-20 2,-8 4,-21 4,-36 0,-16 -2,-27 -4,-36 -3,-8 -7,-14 -12,-19 -5,-5 -11,-8 -19,-9 -5,-2 -16,-2 -33,-2l-18 0zm162 166l0 -200 148 0 0 34 -108 0 0 44 100 0 0 34 -100 0 0 54 112 0 0 34 -152 0z"/>
  </g>
 </g>
</svg>
